<svg xmlns="http://www.w3.org/2000/svg" viewBox="0 0 40 40">
  
<g transform="matrix(0.1,0,0,0.1,0,0)"><g transform="matrix(2,0,0,2,0,0)"><g>
    <path d="M42.69,153.56A37.84,37.84,0,0,0,33.92,148c-2,2.11-5.09,5.78-6.28,7.05,1.9-1.26,19.31,11.23,20,14.34C48.08,163.5,39.88,158.65,42.69,153.56Z" style="fill: #ffd1d0"></path>
    <path d="M103.35,159.49c-1-2.39-22.39-6.24-22.93-4.16.45-2.7,1.33-3.84,1.54-8.51a39.21,39.21,0,0,1,9.94.41C91.56,153.34,102.36,153.64,103.35,159.49Z" style="fill: #ffd1d0"></path>
    <path d="M183.49,122.7a7.37,7.37,0,0,1-.47,3.54c-1.47-1-11.25-7.13-11.25-7.13l4.4-.93C179.68,120.28,182.37,121.9,183.49,122.7Z" style="fill: #ffd1d0"></path>
    <path d="M157.78,98.49l-2.68.57L157.42,110c-1-.64-1.77-1.17-2.29-1.52-.79-8.47-3.33-21.28-5.58-30.78a16.16,16.16,0,0,0,3.93-3C155.54,83.27,156,86.57,157.78,98.49Z" style="fill: #ffd1d0"></path>
    <path d="M176.11,133.93c-23.71-13.36-26.56-15.09-29-17.81s-3.19-6.94-7-24.14a73.68,73.68,0,0,1-3.68,17.25,17.26,17.26,0,0,0-.95,2.16c2.18,11.11,4.2,19.61,6.17,28.15-2.19,2.37-9.46,4.5-13.81,3.3-7.07-27.46-7.47-29.93-7.16-33.63.26-3.15,1.62-6.67,10.43-25.87-.21-.48-.54-1.35-.72-1.84,5,1.42,14.14-.93,19.18-3.83,2.25,9.5,4.78,22.31,5.58,30.78l2.29,1.52,2.47,11.66,11.89-2.53c5.12,3.24,9.76,6.17,11.24,7.13C182,129.13,179,133.26,176.11,133.93Z" style="fill: #ffd1d0"></path>
    <path d="M106.63,92.19c3.15,1.63,4.67,2.87,4.93,4a1.75,1.75,0,0,1-.7,1.72,1.2,1.2,0,0,1-.2,1.36,1,1,0,0,1-1.13.4c-.55,1.58-1.46,1.62-2.3,1.26-.57,1.55-2.08,1-2.91.8.05-.42.08-.88.1-1.39.07-1.53-1.6-1.9-1.89-.44-.16.83-.08.75-.19.75,0-.18.06-.38.09-.58.22-1.57-1.53-2-1.93-.56l-.26,1h0c.09-.35.17-.68.23-.92.38-1.59-1.43-2.15-1.93-.66,0,.1-.07.21-.11.32h0a.29.29,0,0,1,0-.1c.49-1.51-1.18-2.14-1.86-.77-.18.36-.45,1-.7,1.65-.46-.07-1.35-.19-2.1-.26,1.5-2.63,1.41-7,.17-9.6,2.37.34,2.86.45,3.56.06,1.64-.93,2.3-2.09,3.22-1.83l1.16.36c-.86,1-1.7,2.22-2.86,3.92-.82,1.2,1.43,2,4.18-1.16A7,7,0,0,0,106.63,92.19Z" style="fill: #ffd1d0"></path>
    <path d="M174.68,78.51a.26.26,0,0,1-.21-.41l20.17-28.81L159.19,24.47,142.27,48.64a.26.26,0,0,1-.43-.3L158.91,24a.27.27,0,0,1,.37-.07L195.15,49a.26.26,0,0,1,.06.37C173.42,80.55,174.88,78.51,174.68,78.51Z" style="fill: #ea6399"></path>
    <path d="M166,90.35l-7.54,10.78q0,.23.12.48l7.73-11A.19.19,0,0,0,166,90.35Z" style="fill: #ea6399"></path>
    <path d="M139.19,129.2a.26.26,0,0,1-.21-.42l8.52-12.17a.26.26,0,0,1,.43.3C138.84,129.87,139.4,129.2,139.19,129.2Z" style="fill: #ea6399"></path>
    <path d="M106.31,176.15c-.13,0,2,1.52-47.34-33.08a.26.26,0,0,1,.3-.43l47,32.89L129,143a.26.26,0,0,1,.43.3C104.89,178.43,106.52,176.15,106.31,176.15Z" style="fill: #ea6399"></path>
    <path d="M44.49,132.87c-.13,0,1.54,1.27-39.64-27.7a.26.26,0,0,1-.06-.37c26.94-38.53,25.12-35.95,25.28-36s-.19-.23,5.46,3.72a.26.26,0,0,1-.3.43l-5-3.53L5.36,104.89l39.28,27.5A.27.27,0,0,1,44.49,132.87Z" style="fill: #ea6399"></path>
    <path d="M95.41,115.12l-3.21-2.25a.26.26,0,0,1,.3-.43l3,2.1,9-12.9a.26.26,0,0,1,.43.3l-9.18,13.11A.26.26,0,0,1,95.41,115.12Z" style="fill: #ea6399"></path>
    <path d="M114.71,37.81l-1.31-7.42a.25.25,0,0,0-.3-.21l-7.42,1.3a.26.26,0,0,0,.09.52l6.8-1.2L101.31,46.88l-9.76-6.83a.26.26,0,0,0-.36.06L80.62,55.21a.26.26,0,1,0,.42.3L91.47,40.63l9.75,6.83a.28.28,0,0,0,.37-.06L113,31.1l1.19,6.8A.26.26,0,0,0,114.71,37.81Z" style="fill: #ea6399"></path>
    <path d="M44.17,47.82a3.33,3.33,0,0,0-3.86-2.71l-1.65.29-1-5.54L42.37,39a.26.26,0,0,0-.09-.52l-4.69.83-.35-2a.26.26,0,1,0-.51.09l.35,2-1.64.29a3.32,3.32,0,1,0,1.14,6.55L38.24,46l1,5.54-4.68.83a.26.26,0,1,0,.09.51l4.68-.82.36,2a.26.26,0,0,0,.51-.09l-.35-2,1.64-.29A3.35,3.35,0,0,0,44.17,47.82Zm-7.68-2a2.81,2.81,0,0,1-2.78-4.37c.82-1.16,1.9-1.17,3.46-1.45l1,5.53Zm4.88,5.39-1.64.29-1-5.54c1.54-.26,2.59-.63,3.75.18A2.82,2.82,0,0,1,41.37,51.16Z" style="fill: #ea6399"></path>
    <path d="M110.72,126.11l-3.94.7-.7-3.94a.18.18,0,1,0-.36.07l.69,3.93-3.94.7a.19.19,0,0,0,.06.37l3.94-.7.7,3.94a.19.19,0,0,0,.37-.06l-.7-3.94,3.94-.7A.19.19,0,0,0,110.72,126.11Z" style="fill: #ea6399"></path>
    <path d="M165.43,141.15l-5.52,1-1-5.51a.26.26,0,1,0-.51.09l1,5.51-5.51,1a.26.26,0,1,0,.09.51l5.51-1,1,5.51a.26.26,0,0,0,.52-.09l-1-5.51,5.52-1A.26.26,0,0,0,165.43,141.15Z" style="fill: #ea6399"></path>
    <path d="M63.05,168a2.95,2.95,0,1,1,3-2.95A2.95,2.95,0,0,1,63.05,168Zm0-5.37a2.42,2.42,0,1,0,2.42,2.42A2.43,2.43,0,0,0,63.05,162.67Z" style="fill: #ea6399"></path>
    <path d="M172.32,76.16c.74,0,1.21,1.7.29,1.67S171.54,76.16,172.32,76.16Z" style="fill: #8b0045"></path>
    <path d="M118.08,90.94c.22.65-1.17,1.73-1.32,1S117.86,90.29,118.08,90.94Z" style="fill: #8b0045"></path>
    <path d="M89.88,99.15c.39-.73,2-.65,1.64.08S89.42,100,89.88,99.15Z" style="fill: #8b0045"></path>
    <path d="M50.6,126.59c-3.2-10.83-2.79-11.42-3.32-11.35l-26.75,3.35a.27.27,0,0,0-.23.29L23.06,141a.27.27,0,0,0,.29.23c15.78-2,14.8-1.83,14.9-1.93C51.33,126.05,50.66,126.82,50.6,126.59ZM37.94,138.84l-14.39,1.81-2.7-21.57,3.66-.46,19.76,13.83Z" style="fill: #ea6399"></path>
    <path d="M29.76,98.3c.74-.35.74,1.29.13,1.48S29.29,98.52,29.76,98.3Z" style="fill: #8b0045"></path>
    <path d="M176,90.38l.68,3.17,2.93-.62-.8-3.74a3,3,0,0,0-3.13-2.38A14.83,14.83,0,0,1,176,90.38Z" style="fill: #ea6399"></path>
    <path d="M164.1,96.21l2.93-.62-.46-2.2s-.63-4.1-.72-4.52a3,3,0,0,0-2.53,3.62Z" style="fill: #ea6399"></path>
    <path d="M28.57,116.74l3-.37-.38-3.1s0-3.46,0-3.57a3.52,3.52,0,0,0-3,3.93Z" style="fill: #ea6399"></path>
    <path d="M41.13,115.17l3-.37-.38-3.09a3.5,3.5,0,0,0-1.2-2.23,21.89,21.89,0,0,1-2.29.49A24.78,24.78,0,0,1,41.13,115.17Z" style="fill: #ea6399"></path>
    <path d="M29.76,98.3c.74-.35.74,1.29.13,1.48S29.29,98.52,29.76,98.3Z" style="fill: #8b0045"></path>
    <path d="M89.88,99.15c.39-.73,2-.65,1.64.08S89.42,100,89.88,99.15Z" style="fill: #8b0045"></path>
    <path d="M116.76,91.89c.15.78,1.55-.3,1.32-1S116.58,91,116.76,91.89Z" style="fill: #8b0045"></path>
    <path d="M172.32,76.16c.74,0,1.2,1.7.29,1.67S171.54,76.16,172.32,76.16Z" style="fill: #8b0045"></path>
    <path d="M188.58,126a38.47,38.47,0,0,0-4.82-1.63,6,6,0,0,0,0-1.7.27.27,0,0,0-.1-.17c-1.21-.86-4.63-2.89-7.34-4.53a.26.26,0,0,0-.27.45c2.38,1.43,6,3.59,7.21,4.44a7.19,7.19,0,0,1-.35,3c-1.48-.95-11-7-11-7a.26.26,0,1,0-.28.44s9.68,6.12,11.08,7c-1.28,3.4-4.42,6.77-6.57,7.3-23.76-13.39-26.47-15.05-28.86-17.71s-3.27-7.44-6.94-24a.26.26,0,0,0-.24-.2c-2-.12-2.52-.87-2.71-.39a.27.27,0,0,0,.14.34,8.1,8.1,0,0,0,2.27.55,74.65,74.65,0,0,1-3.63,16.87,17.47,17.47,0,0,0-1,2.21c-.22.64,6,27.51,6.13,28.16-2,2.1-9,4.34-13.31,3.17-6.91-26.86-7.41-29.68-7.11-33.4.27-3.2,1.83-7.06,10.42-25.77.07-.16,0-.08-.54-1.58a17.35,17.35,0,0,0,4.83.24c1,4.32,1.11,5.07,3,5a.26.26,0,0,0,.24-.28.25.25,0,0,0-.27-.24c-1.35.07-1.39-.07-2.44-4.49a35.62,35.62,0,0,0,13.24-4c2,8.69,4.67,21.73,5.5,30.41,0,.15-.07.11,2.4,1.72a.26.26,0,0,0,.29-.44c-.93-.6-1.67-1.1-2.19-1.45-.84-8.76-3.49-21.85-5.53-30.51a16.43,16.43,0,0,0,3.49-2.63c.82,3.47,1.62,7.15,2.14,10.25,2.23,13.31,1.83,13.34,2.3,13.34a.26.26,0,0,0,.26-.3c-2.12-14-2.49-17.21-6.62-33.12,4.18.57,5.1,1.08,6.33,2s1.62,2.63,4.7,16.08c.09.83,1,1.07,1.89,1-.49.85-1.37,2-1.37,2.71a5.27,5.27,0,0,0,.92,2.73.26.26,0,0,0,.45-.27,4.71,4.71,0,0,1-.85-2.46c0-.77,1.57-2.48,1.65-3.36a5.59,5.59,0,0,0-.27-2,24.36,24.36,0,0,1,8-1.68c.51,2,1.76,3.62,2.55,7.1a13.75,13.75,0,0,1,.13,4.18,1.18,1.18,0,0,1-1.52.66,14.25,14.25,0,0,0,0-2.59.26.26,0,0,0-.52,0,14.09,14.09,0,0,1,0,2.43c-.08.72-.89,1.24-1.84.7a14.93,14.93,0,0,0,0-2.5.26.26,0,0,0-.52,0,8.32,8.32,0,0,1,0,2.52,1.19,1.19,0,0,1-1.93.51,9.47,9.47,0,0,0-.09-2.5.26.26,0,0,0-.52.09,9.76,9.76,0,0,1,.12,2.16,1,1,0,0,1-2,0,31,31,0,0,0-1-5.41.26.26,0,0,0-.49.18,30.79,30.79,0,0,1,1,5.28,1.53,1.53,0,0,0,2.84.69,1.7,1.7,0,0,0,2.5-.57,1.67,1.67,0,0,0,2.36-.59,1.71,1.71,0,0,0,2.18-1,14.14,14.14,0,0,0-.12-4.45,22.49,22.49,0,0,0-1.6-4.62,1.63,1.63,0,0,0,1.09-1.78c-3.33-16.94-5.29-21.22-9.13-24.77-6.48-6-14.29-6.44-25.68-7.86-1.29-.16-4.54-2.3-6.94-4.48-.8-6.43-1-7-4.19-7.36-.21-1.42-1.15-1.63-4.58-1.87-2.41-.17-3.51,0-4,.58s-.41,1.21-.21,2.27c.29,1.57,1.13,2,2.62,2.09,1.33,7.53,1.71,8.6,3.05,8.75.89.09,1.54-.13,2.69-1.18,0,1.09-.1,3-1.24,3.7-3.59,2.07-5.07,2.93-6.32,4.7-2.37,3.36-2.24,5.55-2.67,20.24-2.32,2-4.9,4.1-7.18,6-5,4-5,4-5,4.49a2.14,2.14,0,0,0,.53,1.49,1.14,1.14,0,0,1-.72.23c-1.93.07-3.54-.57-4.31.28l-.39.44-1-.31c-1.1-.31-1.77.91-3.43,1.85-.61.35-1,.24-3.27-.07a4.65,4.65,0,0,0-1-1.42c-.24-.21-13.54-1.77-13.87-1.81-.59-18.53-1.2-21.48-3.28-23.35-1.44-1.3-3.81-1.9-7.29-1.78a5.2,5.2,0,0,1-1.66-1.64,10.22,10.22,0,0,0,1.35.1c1.38,0,1.77-.36,2.09-1.06.5-1.1.61-3.3.1-8.8a6.59,6.59,0,0,0,2.74-2.38,1.75,1.75,0,0,0-2.51-2.41c-.31-1.5-2.28-1.45-3-.43a1.71,1.71,0,0,0-2.8.7,1.59,1.59,0,0,0-2.64,1,1.43,1.43,0,0,0-1.54,0c-.67.5-1.78,2.5,2.2,10.18-7.07,6-11,7.34-13.9,8.94-8.78,3.1-16.31,7.74-19.24,12.07-2.55,3.78-2.52,10.41-1.45,24.8-.1.8,1.26.9,2.07.9a52.11,52.11,0,0,0,.22,6.34.26.26,0,0,0,.34.22,25.85,25.85,0,0,0,0,3.21,1.37,1.37,0,0,0,2.51.53,1.43,1.43,0,0,0,2.51-.05,1.45,1.45,0,0,0,2.51-.32,1.43,1.43,0,0,0,2.45-1.33s-.28-1.4-.39-1.88a6,6,0,0,0,2.26-.58c.57-.47.17-3.7-.29-4.41a33.88,33.88,0,0,0-2.59-2.67c.7-.14,1.74-.45,1.71-1.17-.18-3.73-.45-12.17-.46-16.6l2.72-.86c-.63,6.94-.83,13.71.55,20.45C46,112,48.68,122,50.05,126.59c-2.31,2.35-19.42,19.59-20.53,20.88-.89,1,.14,2.61,1.23,3.59-1,1.13-2.63,3-3.35,3.81-2.13,2.28,8.88,9.62,11.77,11.42,2.28,1.43,9.27,5.64,8.74,3,.28-4.2-3.8-7.84-5.14-11.43a5.88,5.88,0,0,0,2,.48c.83,0,.91-.34,1.3-.76,19.3-21,20.51-22.7,21-26.36.41-3-.42-9.52-1.21-16.16,3.33,2,7.33,4.38,12.08,7.43.32,3.14,1,19.6.8,25.67-.21,1.21,1.39,1.78,2.6,2-.29,1.71-1.13,4.18-1.21,5.18-.26,3.19,15.38,5.19,20.2,5.19,1.12,0,3.6,0,3.27-1.1-.76-4.56-7.19-5.82-10.07-8.79,1-.06,2.44-.36,2.4-1.34-1.16-30.58-1.52-34.11-3.93-37.71-2.27-3.4-4.14-4.9-13.69-10.77,3.46.21,8.13.25,14.48.25A.29.29,0,0,0,93,101a5.38,5.38,0,0,0,.84-1.07l1.63.2a1.34,1.34,0,0,0,2.17,1.34,1.36,1.36,0,0,0,2.16.7,1.36,1.36,0,0,0,2.27.37,1.32,1.32,0,0,0,2.42-.3c0-.09,0-.17,0-.26,1.22.31,2.29.34,2.83-.8,1.14.38,1.89-.19,2.34-1.3a1.15,1.15,0,0,0,1.16-.54,1.52,1.52,0,0,0,.31-1.46,1.92,1.92,0,0,0,.67-1.69c.4-.39,1-.94,1.62-1.49.69.56,1.87,1.14,2.43.5,4-3.06,11.94-9.89,14.72-12.36l.19.47c-8.58,18.7-10.14,22.57-10.41,25.85-.31,3.8.19,6.64,7.17,33.71a.27.27,0,0,0,.18.19,9.65,9.65,0,0,0,2,.34,42.65,42.65,0,0,0-6.34,11.78c-.53,1.72,15-3.89,20-9a.25.25,0,0,0,.06-.27,31.58,31.58,0,0,0-2.58-5.46,5.15,5.15,0,0,0,.9-.8.24.24,0,0,0,.06-.23c-2.26-9.89-4.1-17.66-6.15-28.07.71-2,2.37-4.59,5.89-11.38,2.41,10.75,3.33,14.08,5.29,16.26,2.45,2.72,5.17,4.39,29.09,17.86.23.14,1.14-.29,1.38-.42.52,5.55,2.94,16,4,14.82,3.21-3.83,7.21-17.39,7.42-22.32A.26.26,0,0,0,188.58,126Zm-13.8-46c-1.06-.53-3.23-.46-6.3.21-1.58.35-4.65,1.15-5.7,2.37-.37-1.64-.71-3.09-1-4.39,1.4-2.68,10.12-4.35,12-3C174.11,76.62,174.44,78.21,174.78,79.93Zm-37-32.63a31.55,31.55,0,0,1-4,6.93,19.86,19.86,0,0,1-2.74-3.92A28.13,28.13,0,0,0,137,46.78Zm-11.34.22c-1-.11-1.36-1.35-2.57-8.23.87,0,2-.16,3.34-.32,1.2,1.5,1.68,1.91,2.08,1.78.2-.07.31-.29.31-.64,0-1.48,1.33-1.26,1.36,1.11a.27.27,0,0,0,.05.14,23.84,23.84,0,0,0,5.51,5.11,27.4,27.4,0,0,1-5.79,3.42,4.61,4.61,0,0,1-1.28-1.09c0-.13,0-.26.07-.39a10.33,10.33,0,0,0,1.55-3.66.26.26,0,0,0-.44-.23C128.08,47.27,127.44,47.63,126.42,47.52Zm2.85,1.89a5,5,0,0,0,1.1.88c-.44,1-.93,2.14-1.27,3.21A10.8,10.8,0,0,1,129.27,49.41ZM66.44,54.29a.27.27,0,0,0,0-.34c-1.27-2-.08-3,.55-1.7.49,1,1.66,1,1.6-1.48a9.08,9.08,0,0,0,1.28-.45c.55,6,.33,7.86-.25,8.67-.68.66-2.83-1.45-3.49-2.12a.26.26,0,0,0-.45.2c.11,1.93.49,3.37,2,4.46a72.27,72.27,0,0,0-13.44,2.53C48.72,65.52,55.09,64.86,66.44,54.29Zm-35,58.88c-.08-.77,0-1.6,0-3.14,0-1.33,1.5-1.45,1.59-.16.08,1.1.1,1.89.13,3A.86.86,0,0,1,31.46,113.17Zm2.39.1c-.14-.79-.12-1.63-.22-3.25-.08-1.39,1.48-1.57,1.65-.24.15,1.17.22,2,.32,3.09A.9.9,0,0,1,33.85,113.27Zm2.43-.16c-.18-.79-.21-1.72-.38-3.29-.12-1.08.77-1.47,1.31-1-.81.81-.5,1.63.28,1.63h.24c.11.67.17,1.15.32,2.2A.92.92,0,0,1,36.28,113.11Zm2.45-.36a18.55,18.55,0,0,1-.45-2.36c.5,0,1.12-.07,1.74-.15.11.51.4,1.92.4,1.92A.9.9,0,0,1,38.73,112.75Zm1.52-9.17a17.47,17.47,0,0,1,1.82,1.9,7.51,7.51,0,0,1,.39,3.72c-.49.42-4.07.7-5,.7-.16,0-.24,0-.25-.14,0-.33.58-1.22,2.7-1.75a.26.26,0,0,0-.08-.52c-2.71.16-4.14-.68-4.52-2.65a.26.26,0,1,0-.51.09A3.58,3.58,0,0,0,38.41,108a4.56,4.56,0,0,0-.8.46,1.29,1.29,0,0,0-2.1.46,1.28,1.28,0,0,0-2.19.14,1.26,1.26,0,0,0-2.27.25,61.78,61.78,0,0,1-.11-7.7,29,29,0,0,1,7.8-.76A3.44,3.44,0,0,0,40.25,103.58Zm-11.48-1.66c-.11-1.54-.21-3-.3-4.36,1.69-2.15,10.74-3,12.43-1.55.06,1.82.12,3.48.18,4.76C39,99.76,30.82,100.47,28.77,101.92Zm18.59,66.31c-2.8-3.84-15.67-13-19.07-13.56,1.48-1.66,3.91-4.54,5.69-6.42a39.14,39.14,0,0,1,8.38,5.37C39.88,158.55,46.79,163.05,47.36,168.23Zm32-20.88c.15-6.86-.54-22.27-.84-25a.28.28,0,0,0-.12-.2C60.2,110.5,53,108.18,51.9,103.13a.26.26,0,0,0-.51.11c.61,2.76,2.84,4.71,7.32,7.52a189.7,189.7,0,0,1,8,19.09c-.16,4.6-1.15,5.83-20.78,27.18-.59-2.11-4.89-5.2-6.71-6.43-2-1.36-6-3.83-8.49-3.63,2-2.08,17.51-17.75,19.83-20.12a.28.28,0,0,0,.07-.26C49.25,122,46.52,111.92,45,104.23a50.35,50.35,0,0,1-.9-7.17c3.34-2.32,9.92-3.78,18.75-4.17.22,5.28,1.71,5.87,5.34,8,13.06,7.72,16.16,9.55,18.68,13.29,1.83,2.72,1.57,6.87,2.34,32.38C87,146.39,81.07,146,79.31,147.35Zm23.55,11.31c-3.47-2.18-19-5-22.06-3.95.47-2.32,1.16-3.26,1.41-7.67a38.68,38.68,0,0,1,9.42.42C91.62,153.25,101,153.9,102.86,158.66ZM91.58,111.91c2.31,3.45,2.69,6.91,3.81,36.43-1.23-1.12-4-1.53-5.7-1.7-.78-25.6-.5-29.86-2.44-32.74-2.75-4.07-6.28-6-20.79-14.6-2.26-1.34-3-2.8-3.14-6.43l2.58-.07c1,3.59,2.27,5,4.53,6.41,1.33.84,3.41,1.3,6.78,1.57C87.42,107,89.3,108.49,91.58,111.91Zm-5.37-11.36c-9-.08-13.36-.43-15.5-1.78-4.13-2.61-4.86-5.31-6.71-22.42a.29.29,0,0,0-.26-.24.27.27,0,0,0-.26.24c-.37,4.57-.54,9.09-.69,13.31-8.71.23-15.44,1.57-18.84,3.78a156.58,156.58,0,0,1,1.85-21.3.26.26,0,0,0-.52-.07c-.4,3-.76,5.81-1,8.42a76.71,76.71,0,0,1-6.77,4.81.26.26,0,0,0,.21.47c.78-.21,1.86-.53,3-.86,0,2.71.11,6.83.23,10.47-2.34-1.2-10.11-.48-12.45,1.49-.64-10.42-.37-15.69,1.75-18.82C33.61,73,43.57,67.43,54.39,64.56c11.81-3.12,18.32-3.4,21.1-.9,1.94,1.74,2.51,4.64,3.1,22.9-.32,0-.59-.08-.8-.09a.26.26,0,0,0-.06.52c1,.11,5.47.64,9.32,1.12C89.22,90.24,89.05,98.11,86.21,100.55Zm6.49,0H87c2.48-2.75,2.77-9.63.86-12.36,2.18.28,4.08.53,4.88.67C95,91,95.33,98,92.7,100.57Zm4.74.31a.81.81,0,0,1-1.43-.74c.26-.67.54-1.34.73-1.72.53-1.09,1.76-.64,1.38.57C98,99.51,97.61,100.48,97.44,100.88Zm2.72-1.43c-.16.68-.33,1.38-.53,2-.3,1-1.8.48-1.48-.69.12-.43.38-1.25.58-1.84C99.12,97.76,100.46,98.2,100.16,99.45Zm2,.52a19.16,19.16,0,0,1-.37,2,.8.8,0,0,1-1.54-.45c.13-.57.32-1.34.49-2C101.07,98.34,102.34,98.73,102.17,100Zm2,.31a13.3,13.3,0,0,1-.19,1.89c-.18.87-1.58.59-1.51-.16,0-.34.21-1.53.32-2.11C103,98.74,104.2,99.08,104.16,100.28Zm6.73-2.83a9.32,9.32,0,0,0-2.92-2,.26.26,0,0,0-.24.46c.57.3,2.78,1.38,3,2.23a1,1,0,0,1-.27.87c-.35.48-.83.69-3.53-1.19a.26.26,0,0,0-.3.43,12.24,12.24,0,0,0,2.58,1.49,1.53,1.53,0,0,1-.88,1c-.84.26-2-.75-2.59-1.16a.26.26,0,0,0-.29.44,15.82,15.82,0,0,0,1.45,1c-.43.88-1.29.74-2.27.49,0-.4.06-.8.07-1.2.06-1.53-1.39-2.08-2.1-1.21a1.16,1.16,0,0,0-1.92-.45,1.2,1.2,0,0,0-2-.54c-.34-1-1.74-1.19-2.37.1-.17.34-.41.89-.63,1.47l-1.53-.19a12.27,12.27,0,0,0,.18-9,19.73,19.73,0,0,0,2.16.24,2,2,0,0,0,1.11-.28c1.56-.88,2.29-2,3-1.8l.8.24c-.81,1-1.61,2.14-2.64,3.64s1.46,2.68,4.47-.7a7.46,7.46,0,0,0,3.34.67c3.08,1.6,4.65,2.87,4.78,3.9A1.37,1.37,0,0,1,110.89,97.45Zm.78-1.78c-.47-1-1.81-2-4.19-3.34a4.6,4.6,0,0,0,1.07-.33.26.26,0,0,0-.21-.47,6.32,6.32,0,0,1-5.08-.33.26.26,0,0,0-.32.07c-2.34,2.72-4.41,2.42-3.77,1.48a42,42,0,0,1,3.35-4.46c.32-.36,1.07-.29,2-.2,2.92.28,2.48.13,4.71-1.75a23.94,23.94,0,0,1,5.67,6.39C114.09,93.46,112.56,94.82,111.67,95.67Zm7.84-4c-1.25,1-2.43,2-3.41,2.76-.2-2.34-5.63-8.74-8.11-9.26.91-.77,2.19-1.82,3.65-3C115,82.53,119.72,88.73,119.51,91.64Zm10.08-13c-2-5.44-4.77-13.48-4.89-14.48a33.15,33.15,0,0,1,0-6.3.27.27,0,0,0-.53,0,33.48,33.48,0,0,0,0,6.41c.09.74,1.49,4.93,3,9.25a67.72,67.72,0,0,1,.59,11.18c-2.19,1.9-5.1,4.38-7.74,6.56-.22-3.16-4.44-8.66-7.86-9.51,2.27-1.84,4.81-3.9,7.09-5.88a.25.25,0,0,0,.09-.19c.41-14.73.32-16.86,2.58-20.07,1.83-2.6,5.69-4,6.58-4.86a16.56,16.56,0,0,0,.27,4.14.27.27,0,0,0,.52,0,9.43,9.43,0,0,1,.35-1.31,7.35,7.35,0,0,0,.57,1.4c-.23,2.23-1.41,17.36-1.41,18.46a18.22,18.22,0,0,0,2.42,3.93.26.26,0,0,0,.38,0c.45-.49,2.85-3.43,2.8-3.86-.33-2.46-2.56-16.74-3-18.52a13.37,13.37,0,0,0,.89-1.67,11.83,11.83,0,0,0,1.32,1.54.26.26,0,0,0,.39,0,32.85,32.85,0,0,0,4.19-7.2c1.9,1.11,2.21,1,4.4,1.25,10.95,1.32,17.56,2.11,23.36,7.48,3.22,3,5.1,6.52,7.66,18.17-2.61-1.06-10,.45-12,2.94-2-8.51-2.39-9.67-3.55-10.52-1.82-1.33-3-1.85-13.54-2.85a.26.26,0,0,0-.14.49,59.8,59.8,0,0,1,7.48,4.6c.21.82.43,1.71.66,2.63C147.85,76.91,134.84,80.26,129.59,78.64Z" style="fill: #8b0045"></path>
    <path d="M167.68,89.88a.27.27,0,0,1-.08-.52c1.25-.39,5.36-1.43,6.64-1.65a.26.26,0,1,1,.09.51C172.07,88.62,167.78,89.88,167.68,89.88Z" style="fill: #8b0045"></path>
    <g>
      <path d="M155.4,98.84l5.35,12.54,4.35-.93-.49-2.31,2.32-.49.49,2.31,15.11-3.21-.49-2.31,2.33-.5.49,2.31,4.34-.92L189,91.59C152.69,99.3,155.34,98.7,155.4,98.84Z" style="fill: #ea6399"></path>
      <path d="M194.41,114.3l-4.69-22,.21,13.35a.36.36,0,0,1-.29.36L185,107l.5,2.38-2.32.5-.51-2.39-15.11,3.21.51,2.39-2.33.5-.5-2.39-4.64,1a.35.35,0,0,1-.4-.21L155,99.65l4.69,22a.26.26,0,0,0,.31.2l34.24-7.28A.27.27,0,0,0,194.41,114.3Z" style="fill: #ea6399"></path>
    </g>
    <path d="M31.46,113.17c-.08-.77,0-1.6,0-3.14,0-1.33,1.5-1.45,1.59-.16.08,1.1.1,1.89.13,3A.86.86,0,0,1,31.46,113.17Z" style="fill: #ffd1d0"></path>
    <path d="M33.85,113.27c-.14-.79-.12-1.63-.22-3.25-.08-1.39,1.48-1.57,1.65-.24.15,1.17.22,2,.32,3.09A.9.9,0,0,1,33.85,113.27Z" style="fill: #ffd1d0"></path>
    <path d="M36.28,113.11c-.18-.79-.21-1.72-.38-3.29-.12-1.08.77-1.47,1.31-1-.81.81-.5,1.63.28,1.63h.24c.11.67.17,1.15.32,2.2A.92.92,0,0,1,36.28,113.11Z" style="fill: #ffd1d0"></path>
    <path d="M38.73,112.75a18.55,18.55,0,0,1-.45-2.36c.5,0,1.12-.07,1.74-.15.11.51.4,1.92.4,1.92A.9.9,0,0,1,38.73,112.75Z" style="fill: #ffd1d0"></path>
    <path d="M40.25,103.58a17.47,17.47,0,0,1,1.82,1.9,7.51,7.51,0,0,1,.39,3.72c-.49.42-4.07.7-5,.7-.16,0-.24,0-.25-.14,0-.33.58-1.22,2.7-1.75a.26.26,0,0,0-.08-.52c-2.71.16-4.14-.68-4.52-2.65a.26.26,0,1,0-.51.09A3.58,3.58,0,0,0,38.41,108a4.56,4.56,0,0,0-.8.46,1.29,1.29,0,0,0-2.1.46,1.28,1.28,0,0,0-2.19.14,1.26,1.26,0,0,0-2.27.25,61.78,61.78,0,0,1-.11-7.7,29,29,0,0,1,7.8-.76A3.44,3.44,0,0,0,40.25,103.58Z" style="fill: #ffd1d0"></path>
    <path d="M54.25,64.06c-5.53,1.46.84.8,12.19-9.77a.27.27,0,0,0,0-.34c-1.27-2-.08-3,.55-1.7.49,1,1.66,1,1.6-1.48a9.08,9.08,0,0,0,1.28-.45c.55,6,.33,7.86-.25,8.67-.68.66-2.83-1.45-3.49-2.12a.26.26,0,0,0-.45.2c.11,1.93.49,3.37,2,4.46A72.27,72.27,0,0,0,54.25,64.06Z" style="fill: #ffd1d0"></path>
  </g></g></g></svg>