<svg xmlns="http://www.w3.org/2000/svg" viewBox="0 0 40 40">
  
  
<g transform="matrix(0.1,0,0,0.1,0,0)"><g transform="matrix(2,0,0,2,0,0)"><title>currency-exchange</title><g>
    <path d="M21.55,111.15c-5.89-16.31-2.43-32.58,7.72-36.23a12,12,0,0,1,3.18-.68,2.29,2.29,0,0,0-1.84-.1c-7.95,1.93-16,5.28-19.16,13.42C5.56,102.81,14,126.62,27.9,135.24c7.82,4.83,14.31,2.13,22.15-.88C40,137.41,27.34,127.2,21.55,111.15Z" style="fill: #ffe7ab"></path>
    <path d="M45.78,78.42C39,73,31.63,73.12,30.47,73.53c-7.32,1.78-16.17,5-19.6,13.8-6,15.39,2.41,39.6,16.7,48.44,7.64,4.72,13.91,2.55,22.13-.61,5.16-2,9.47-5.3,11.37-14.23C64.14,106.54,57.31,87.56,45.78,78.42ZM25.54,76.26a18.7,18.7,0,0,0-6.16,9.57L11.5,89.32C13.28,83.68,17.05,79.23,25.54,76.26ZM11.06,90.86,19,87.4a36.43,36.43,0,0,0-.71,12,31.3,31.3,0,0,0-7.87,3.49A34.21,34.21,0,0,1,11.06,90.86Zm-.51,13.43a29.89,29.89,0,0,1,7.82-3.62,50.27,50.27,0,0,0,3.17,12.22l-7.75,3.29A51.19,51.19,0,0,1,10.55,104.29Zm3.71,13L22,114.05a47.25,47.25,0,0,0,6.12,10.54A46.2,46.2,0,0,1,19.9,127,45.47,45.47,0,0,1,14.26,117.31Zm6.52,10.8A42.2,42.2,0,0,0,29,125.63a34.89,34.89,0,0,0,8,7A39.51,39.51,0,0,1,29,134.91c-.38.06-.06.24-.76-.2A31.06,31.06,0,0,1,20.78,128.11Zm9.66,7.78a39.8,39.8,0,0,0,7.85-2.48,18.26,18.26,0,0,0,7,2.08C40.14,137.29,35.56,138.2,30.44,135.89Zm29.42-15.22c-1.41,6.63-4.78,11.2-9.47,12.89-9.55,3.44-19.68-6.15-24.77-15C20,108.58,17.29,95,21,84.83c4.18-11.25,14.48-13,24-5.44C56.16,88.24,62.82,106.74,59.86,120.67Z" style="fill: #efac54"></path>
    <path d="M45.88,100.73c-2.15,3.1-6.82,1.89-7.84-1.39a.64.64,0,0,0-1.24.32A6,6,0,0,0,43,103.73c4.76-.62,6.23-6.5,3.29-9.66-.58-.56-1.47.32-.88.88C45.47,95.06,47.82,97.74,45.88,100.73Z" style="fill: #5e503b"></path>
    <path d="M52.27,118.44l-2.39,1.22c-.3-1-.58-2-.85-3.07l3.63-1.78c.72-.35.1-1.43-.62-1.07l-3.33,1.62-.42-1.68a51,51,0,0,1,3.62-8.63c.39-.71-.69-1.33-1.07-.63a53.42,53.42,0,0,0-3.51,8.33,81.87,81.87,0,0,0-8-3.23c-.76-.26-1.09.93-.33,1.24l0-.06A81.31,81.31,0,0,1,47,114l.48,1.94L43,118.17c-.72.35-.09,1.42.64,1.07l4.24-2.08c.28,1,.57,2.07.88,3.09l-3.12,1.58c-.72.38-.09,1.44.62,1.08l2.86-1.45c.33,1.07.66,2.13,1,3.2.24.76,1.47.43,1.24-.33-.35-1.15-.75-2.3-1.1-3.46l2.66-1.34C53.62,119.17,53,118.08,52.27,118.44Z" style="fill: #efac54"></path>
    <path d="M138.56,12.58c-8.62-7.31-18.68-7.47-29.43-7.22h-.51c18.88,0,31.91,15.35,31.91,32.68,0,18.05-13.92,32.66-31.13,32.66h-1.17a1.77,1.77,0,0,0,.78.23c10.58.26,21.53-.44,29.87-7.67a33.75,33.75,0,0,0-.31-50.66Z" style="fill: #ffe7ab"></path>
    <path d="M109.4,5.36C126.57,5.36,140.49,20,140.49,38S126.57,70.71,109.4,70.71,78.32,56.08,78.32,38,92.24,5.36,109.4,5.36Z" style="fill: #ffffff"></path>
    <ellipse cx="109.03" cy="37.94" rx="28.33" ry="29.79" style="fill: #fffda9"></ellipse>
    <path d="M109,68.35c-16,0-29-13.64-29-30.41s13-30.42,29-30.42,29,13.65,29,30.42S125,68.35,109,68.35Zm0-59.58c-15.28,0-27.71,13.08-27.71,29.17S93.75,67.11,109,67.11,136.74,54,136.74,37.94,124.31,8.77,109,8.77Z" style="fill: #5e503b"></path>
    <path d="M112.77,38.93a7.15,7.15,0,0,0-4.86-2.76l.14-2.17a.65.65,0,0,0-.63-.62.62.62,0,0,0-.62.62l-.13,2.16c-3.43.34-6.37,3.67-5.11,7.18a6.6,6.6,0,0,0,3.55,3.73c1.82.84,3.73,1,5.2,2.57A5.88,5.88,0,0,1,108.13,59c-2.92,1.1-7.21-.53-7.27-4a.62.62,0,0,0-1.24,0A6,6,0,0,0,105,60.47h0l-.16,2.12a.63.63,0,0,0,.62.63.63.63,0,0,0,.62-.63l.16-2a7,7,0,0,0,6.31-4.32,7.12,7.12,0,0,0-3.06-8.84c-1.82-1-3.93-1.13-5.53-2.58a4.13,4.13,0,0,1-.94-5,5,5,0,0,1,5.89-2.16c2,.61,4,2.49,3.31,4.74-.24.77,1,1.09,1.24.33A4.61,4.61,0,0,0,112.77,38.93Z" style="fill: #efac54"></path>
    <path d="M112.66,21.2a6.49,6.49,0,0,1-1.61,4.67c-2.9,3-7.29.15-6.76-4.18A5.25,5.25,0,0,0,112.66,21.2Z" style="fill: #ffffff"></path>
    <path d="M108.2,27.72c-3.27,0-4.85-3.48-4.53-6.1a.63.63,0,0,1,1.08-.35,4.64,4.64,0,0,0,7.4-.41.62.62,0,0,1,1.14.31C113.47,24.3,111.5,27.72,108.2,27.72Zm3.7-4.79a5.76,5.76,0,0,1-7,.13C105.63,27.67,110.8,27.63,111.9,22.93Z" style="fill: #5e503b"></path>
    <path d="M142.08,15.19c-9-10.11-19.57-10.66-33-10.45C92,5,77.69,19.57,77.69,38c0,17.51,13,32.62,31.3,33.51,11.05.28,22-.6,30.31-7.83A34.42,34.42,0,0,0,142.08,15.19Zm7.42,21.4q-4.2-.31-8.41-.51a33.92,33.92,0,0,0-.66-5.08L149,32A32.69,32.69,0,0,1,149.5,36.59Zm-2.37-11a33.18,33.18,0,0,1,1.59,5.08l-8.57-1a34.44,34.44,0,0,0-1.64-5,63.32,63.32,0,0,1,8.47.87A.38.38,0,0,0,147.13,25.63Zm-3.07-5.83a32.37,32.37,0,0,1,2.47,4.45,66.74,66.74,0,0,0-8.59-.8,34.88,34.88,0,0,0-2.81-4.91C141.64,19.06,143.54,19.91,144.06,19.8Zm-5.11-6A33.24,33.24,0,0,1,143,18.33a70.11,70.11,0,0,0-8.9-1.15,33.77,33.77,0,0,0-3.54-3.92C139.33,13.92,138.72,13.92,139,13.78Zm-5.64-4a28.72,28.72,0,0,1,4.23,2.81c-8.88-.66-8.29-.63-8.43-.6a32.24,32.24,0,0,0-4.37-3C133.09,9.74,132.93,9.93,133.31,9.73Zm-3.45-1.55c-4.32-.46-7.3-.89-7.76-.66A30.75,30.75,0,0,0,118.18,6,39.53,39.53,0,0,1,129.86,8.18ZM78.94,38C78.94,20.36,92.61,6,109.4,6S139.87,20.36,139.87,38,126.2,70.09,109.4,70.09,78.94,55.71,78.94,38Zm38.75,32.14a30.36,30.36,0,0,0,4.19-1.53,36.88,36.88,0,0,0,5,.1A47.1,47.1,0,0,1,117.69,70.18Zm13.83-3A.67.67,0,0,0,131,67a35.57,35.57,0,0,1-6.83.48c2.34-1.3,3.61-2.39,3.28-2q4.65-.43,9.25-1.25A27.48,27.48,0,0,1,131.52,67.15Zm7.28-4.66c-.25,0-3.86.84-9.5,1.47A32.83,32.83,0,0,0,133,60.34a67.37,67.37,0,0,0,9.22-1.42A32.33,32.33,0,0,1,138.8,62.49Zm4.5-5.05a.61.61,0,0,0-.33,0A89.74,89.74,0,0,1,134.06,59a33.87,33.87,0,0,0,2.88-4.39c.28.19-.3.2,8.76-1A34.4,34.4,0,0,1,143.3,57.44Zm3.06-5.19-8.82,1.18a33.56,33.56,0,0,0,1.9-4.63l.08,0a31.19,31.19,0,0,0,8.19.12A33.6,33.6,0,0,1,146.36,52.25Zm1.78-4.65a28.7,28.7,0,0,1-8.32,0,35.68,35.68,0,0,0,1-4.66c2.77.16,5.57.2,8.35.11A32.75,32.75,0,0,1,148.14,47.6ZM141,41.68a35.49,35.49,0,0,0,.18-4.35q4.2.18,8.39.51a34.66,34.66,0,0,1-.2,3.94C146.54,41.88,143.74,41.84,141,41.68Z" style="fill: #5e503b"></path>
    <path d="M157.81,105.44a275.87,275.87,0,0,0,32.65,29.4,81.35,81.35,0,0,0-46.21,59.76c-12.67-6.32-27.75-16.42-40.44-22.74C104.47,171.43,113.42,129.49,157.81,105.44Z" style="fill: #dce28f"></path>
    <path d="M190.77,134.36a279.24,279.24,0,0,1-32.53-29.28.59.59,0,0,0-.75-.1,112.22,112.22,0,0,0-54.21,66.72.08.08,0,0,0,0,0,.54.54,0,0,0,.25.76c14,7,27.26,16.15,40.42,22.73a.66.66,0,0,0,.91-.36,80.8,80.8,0,0,1,45.92-59.44C191.24,135.21,191.09,134.6,190.77,134.36Zm-47,59.41C130.34,187,117.22,178,104.59,171.65a111.32,111.32,0,0,1,53.09-65.48,275.28,275.28,0,0,0,31.65,28.56A82,82,0,0,0,143.78,193.77Z" style="fill: #6e7028"></path>
    <path d="M179.92,131.62a42.28,42.28,0,0,1-5.39-4.88c-5.5-5.71-11-8.83-15.24-14.28a.62.62,0,0,0-.88,0c-1.5,1.49-3.87,1.84-5.25,0a.65.65,0,0,0-.86-.23c-21.2,11.37-33.57,30.7-43,53a.63.63,0,0,0,.38.91c2.47.56,2.94,3.33,2.49,5.44a.66.66,0,0,0,.28.7c4.32,2.61,21.65,12.52,25.85,15.12a.69.69,0,0,0,.94-.41,5.24,5.24,0,0,1,3.24-3.2c.51-.22.55-.52.72-1a79.42,79.42,0,0,1,24.35-36.34,88.17,88.17,0,0,1,11.77-8.21.63.63,0,0,0,.22-.85,3.88,3.88,0,0,1,.34-4.81A.63.63,0,0,0,179.92,131.62Zm-38,51a6.68,6.68,0,0,0-3.55,3.23c-.3-.19-24.77-14.47-24.87-14.53.31-2.46-.32-5.37-2.8-6.28a152.35,152.35,0,0,1,12-23.12c7.45-11.76,17.54-21.86,29.7-28.42a4.44,4.44,0,0,0,6.28.28c4.15,5.09,8.59,7.5,15.07,14a42.83,42.83,0,0,0,4.78,4.35,5.18,5.18,0,0,0-.41,5.22A80.6,80.6,0,0,0,141.92,182.64Z" style="fill: #5e503b"></path>
    <path d="M152.6,144.71l0,0c-3.21-5.07-10-7.11-14.88-3.51l-2.5-2.12a.65.65,0,0,0-.88,0,.63.63,0,0,0,0,.89l2.42,2a8.44,8.44,0,0,0-1.65,2.33l-2.41-1.78a.62.62,0,0,0-.85.23.61.61,0,0,0,.23.84l2.56,1.9c-1.89,6.16,3.52,11.63,9.92,12.42.79.1,1.12-1.08.34-1.25-6.46-.71-10.25-5.83-9.21-10.4L138,148.1a.62.62,0,0,0,.84-.21.62.62,0,0,0-.22-.86l-2.56-1.89a7.18,7.18,0,0,1,1.63-2.26l2.23,1.88a.61.61,0,0,0,.88,0,.63.63,0,0,0,0-.88l-2.12-1.79c4.53-3.08,10.17-1,12.84,3.25C151.94,146,153,145.34,152.6,144.71Z" style="fill: #5e503b"></path>
    <path d="M156.32,129.87a5.8,5.8,0,0,1-3.16-5,28.9,28.9,0,0,0-1.18,3.64c-1.52,4.55,2.31,7.62,5.89,6a13.83,13.83,0,0,0,4.47-3.34A12.94,12.94,0,0,1,156.32,129.87Z" style="fill: #ffffff"></path>
    <path d="M156,135.59c-4.09,0-5.69-3.88-4.56-7.26a18.7,18.7,0,0,1,1.15-3.4c0-.1,0-.64.6-.66a.63.63,0,0,1,.64.6,5.21,5.21,0,0,0,2.83,4.45,12.77,12.77,0,0,0,5.72,1.28.62.62,0,0,1,.47,1,14.07,14.07,0,0,1-4.67,3.49A5.45,5.45,0,0,1,156,135.59Zm1.66-1.6a12.94,12.94,0,0,0,3.3-2.2,13.67,13.67,0,0,1-4.86-1.36,6.39,6.39,0,0,1-3-3.29,15.73,15.73,0,0,0-.43,1.53C151.22,132.79,154.54,135.35,157.61,134Z" style="fill: #5e503b"></path>
    <path d="M66.47,27.91a19.71,19.71,0,0,0-8.32-3.41,2,2,0,0,0-1.28,3.88c-13.25,2.88-25.26,13.25-29,27.06a2.08,2.08,0,0,0,4,1.11A34.9,34.9,0,0,1,59,32.17c-.76.51-1.54,1-2.33,1.48a2.08,2.08,0,0,0,2.09,3.6,46.39,46.39,0,0,0,8.13-6.07A2.11,2.11,0,0,0,66.47,27.91Z" style="fill: #ffaad7"></path>
    <path d="M182.79,90.3a2.1,2.1,0,0,0-2.61.43,38.61,38.61,0,0,0-12.45-37.67A2.08,2.08,0,0,0,164.79,56v.07A34.87,34.87,0,0,1,176,91c-.15-.85-.3-2.37-.34-2.47a2.08,2.08,0,0,0-4.16,0,51.4,51.4,0,0,0,2.14,10,2.1,2.1,0,0,0,3.05,1.24,20.44,20.44,0,0,0,6.89-6.54A2.09,2.09,0,0,0,182.79,90.3Z" style="fill: #ffa02e"></path>
    <path d="M87,176.68c-1-3.27-5.45.25-15.27-2.41A34.85,34.85,0,0,1,51.47,160c.85.53,1.68,1.08,2.5,1.66a2.09,2.09,0,0,0,2.84-.74,2.12,2.12,0,0,0-.74-2.84,47,47,0,0,0-8.37-4.76,2.14,2.14,0,0,0-3.08,1.25,20.42,20.42,0,0,0,.21,9.55,2.08,2.08,0,0,0,4.13-.49,38.9,38.9,0,0,0,36.58,15.54A2.09,2.09,0,0,0,87,176.68Z" style="fill: #51bdbf"></path>
    <circle cx="30.39" cy="97.75" r="3.77" style="fill: #ffcecc"></circle>
    <circle cx="49.04" cy="89.66" r="3.77" style="fill: #ffcecc"></circle>
    <circle cx="32.18" cy="94" r="1.95" style="fill: #5e503b"></circle>
    <circle cx="45.19" cy="88.08" r="1.95" style="fill: #5e503b"></circle>
    <circle cx="95.29" cy="20.86" r="4.52" style="fill: #efac54"></circle>
    <circle cx="121.85" cy="21.77" r="4.52" style="fill: #efac54"></circle>
    <circle cx="99" cy="17.5" r="2.34" style="fill: #5e503b"></circle>
    <circle cx="118.3" cy="18.27" r="2.34" style="fill: #5e503b"></circle>
    <circle cx="150.44" cy="120.2" r="3.9" style="fill: #c1c69b"></circle>
    <path d="M167.35,130.74a3.9,3.9,0,1,1-3.89,3.9A3.9,3.9,0,0,1,167.35,130.74Z" style="fill: #c1c69b"></path>
    <path d="M154.73,117.8a2,2,0,1,0,2,2A2,2,0,0,0,154.73,117.8Z" style="fill: #5e503b"></path>
    <path d="M166.73,128.37a2,2,0,1,0,2,2A2,2,0,0,0,166.73,128.37Z" style="fill: #5e503b"></path>
  </g></g></g></svg>